<svg fill="#000000" xmlns="http://www.w3.org/2000/svg"  viewBox="0 0 30 30" width="100px" height="100px"><path d="M15.701,12.622c-0.722-0.974-1.244-1.78-1.969-3.298c-1.226-2.567,7.234-5.215,3.93-9.339c1.528,3.079-5.471,4.979-6.121,7.543C10.946,9.884,15.696,12.622,15.701,12.622z"/><path d="M17.113 7.772c-.121 1.448 1.403 2.22 1.446 3.274.037.861-.911 1.577-.911 1.577s1.564-.24 2.101-1.553c.594-1.456-1.001-2.519-.823-3.686.17-1.116 3.797-3.187 3.797-3.187S17.386 4.52 17.113 7.772zM21.851 13.237c1.187-.257 2.188.473 2.188 1.316 0 1.894-2.72 3.687-2.72 3.687s4.212-.484 4.212-3.599C25.531 12.583 23.366 12.155 21.851 13.237zM19.585 14.803c0 0 1.165-.637 1.529-.98-3.36.673-10.826.477-10.826-.107 0-.538 2.473-1.092 2.473-1.092s-5.483-.074-5.483 1.452C7.277 15.671 14.457 15.783 19.585 14.803z"/><path d="M18.26,16.133c-3.239,1.063-9.211,0.722-7.443-0.701c-0.858-0.001-2.136,0.68-2.136,1.334c0,1.316,6.455,2.329,11.233,0.407L18.26,16.133z"/><path d="M12.03,18.239c-1.179,0-1.945,0.792-1.945,1.372c0,1.796,7.039,1.858,9.829,0.032l-1.773-1.105C16.059,19.493,10.825,19.623,12.03,18.239z"/><path d="M22.723,22.236c0-0.633-0.706-0.934-0.962-1.078c1.49,3.645-15.111,3.395-15.111,1.244c0-0.49,0.879-0.989,1.998-0.761c0,0-0.41-0.476-0.951-0.57c-2.221-0.383-3.228,0.625-3.228,1.427C4.469,26.228,22.723,26.049,22.723,22.236z"/><path d="M25.531,23.794c-2.897,2.836-10.872,4.559-18.254,2.808C14.694,29.608,25.496,27.275,25.531,23.794z"/></svg>